<svg width="26" height="26" viewBox="0 0 26 26" fill="none" xmlns="http://www.w3.org/2000/svg">
<rect width="26" height="26" rx="13" transform="matrix(1 0 0 -1 0 26)" fill="white"/>
<path d="M6.6424 9.46451C6.82992 9.27704 7.08423 9.17172 7.3494 9.17172C7.61456 9.17172 7.86887 9.27704 8.0564 9.46451L13.0064 14.4145L17.9564 9.46451C18.145 9.28235 18.3976 9.18155 18.6598 9.18383C18.922 9.18611 19.1728 9.29128 19.3582 9.47669C19.5436 9.6621 19.6488 9.91291 19.6511 10.1751C19.6533 10.4373 19.5526 10.6899 19.3704 10.8785L13.7134 16.5355C13.5259 16.723 13.2716 16.8283 13.0064 16.8283C12.7412 16.8283 12.4869 16.723 12.2994 16.5355L6.6424 10.8785C6.45492 10.691 6.34961 10.4367 6.34961 10.1715C6.34961 9.90634 6.45492 9.65203 6.6424 9.46451Z" fill="#1E1E1E" fill-opacity="0.6"/>
</svg>
