<svg width="20" height="20" viewBox="0 0 20 20" fill="none" xmlns="http://www.w3.org/2000/svg">
<path d="M10.0002 4.16666C4.74433 4.16666 2.19433 8.90249 1.74183 9.83999C1.71764 9.88986 1.70508 9.94457 1.70508 9.99999C1.70508 10.0554 1.71764 10.1101 1.74183 10.16C2.1935 11.0975 4.7435 15.8333 10.0002 15.8333C15.2568 15.8333 17.806 11.0975 18.2585 10.16C18.2827 10.1101 18.2952 10.0554 18.2952 9.99999C18.2952 9.94457 18.2827 9.88986 18.2585 9.83999C17.8068 8.90249 15.2568 4.16666 10.0002 4.16666Z" stroke="#1E1E1E" stroke-opacity="0.6" stroke-width="1.5" stroke-linecap="round" stroke-linejoin="round"/>
<path d="M10 12.5C11.3807 12.5 12.5 11.3807 12.5 10C12.5 8.61929 11.3807 7.5 10 7.5C8.61929 7.5 7.5 8.61929 7.5 10C7.5 11.3807 8.61929 12.5 10 12.5Z" stroke="#1E1E1E" stroke-opacity="0.6" stroke-width="1.5" stroke-linecap="round" stroke-linejoin="round"/>
</svg>
