<svg width="24" height="24" viewBox="0 0 24 24" fill="none" xmlns="http://www.w3.org/2000/svg">
<path d="M14.2853 7.42855V5.14283C14.2853 4.53662 14.0445 3.95524 13.6158 3.52659C13.1872 3.09793 12.6058 2.85712 11.9996 2.85712H3.99958C3.39337 2.85712 2.81199 3.09793 2.38334 3.52659C1.95468 3.95524 1.71387 4.53662 1.71387 5.14283V18.8571C1.71387 19.4633 1.95468 20.0447 2.38334 20.4734C2.81199 20.902 3.39337 21.1428 3.99958 21.1428H11.9996C12.6058 21.1428 13.1872 20.902 13.6158 20.4734C14.0445 20.0447 14.2853 19.4633 14.2853 18.8571V16.5714" stroke="#FF3030" stroke-width="2.28571" stroke-linecap="round" stroke-linejoin="round"/>
<path d="M8.57129 12H22.2856M22.2856 12L18.857 8.57141M22.2856 12L18.857 15.4286" stroke="#FF3030" stroke-width="2.28571" stroke-linecap="round" stroke-linejoin="round"/>
</svg>
