<svg width="24" height="24" viewBox="0 0 24 24" fill="none" xmlns="http://www.w3.org/2000/svg">
<path d="M13.4365 22.1989C13.428 22.2041 13.4197 22.2104 13.4111 22.2155C12.9321 22.502 12.3844 22.6525 11.8262 22.653C11.2683 22.6523 10.7209 22.5018 10.2422 22.2155C10.2336 22.2104 10.2253 22.2041 10.2168 22.1989H13.4365ZM11.8262 1.74481C12.681 1.74481 13.5598 2.37508 13.9004 3.51532L13.9609 3.71942L14.0986 3.88055C14.1875 3.98429 14.2946 4.07092 14.4141 4.13739L14.4658 4.16669L14.5195 4.18817C15.4819 4.58412 16.2029 5.08461 16.749 5.70184L16.9727 5.9743C17.7448 6.98195 18.1845 8.38552 18.1846 10.2243C18.1846 12.1934 18.3554 13.4979 18.7246 14.5163C19.1015 15.5555 19.6617 16.2224 20.2188 16.8962L20.2197 16.8972C20.2704 16.9583 20.4079 17.1245 20.4697 17.1989V17.1999C20.5669 17.3174 20.6289 17.4606 20.6475 17.612C20.6659 17.7634 20.6402 17.9169 20.5742 18.0544L20.5732 18.0563C20.4302 18.355 20.1235 18.5611 19.7275 18.5612H3.93164C3.52894 18.5612 3.22008 18.3524 3.0791 18.0554L3.07812 18.0524L3.03613 17.947C3.00213 17.8386 2.99183 17.7236 3.00586 17.61C3.02455 17.4589 3.0864 17.3162 3.18359 17.1989L3.18945 17.1911L3.43359 16.8952C3.99146 16.2218 4.55182 15.5558 4.92871 14.5163C5.29792 13.4979 5.4697 12.1931 5.46973 10.2233C5.46973 8.60552 5.79334 7.35667 6.38184 6.40009C6.96495 5.45251 7.85668 4.71237 9.13477 4.18622L9.18848 4.16376L9.24023 4.13544C9.35405 4.07208 9.45646 3.98966 9.54297 3.89227L9.68945 3.72626L9.75293 3.51434C10.0934 2.37545 10.9713 1.74502 11.8262 1.74481Z" stroke="white" stroke-width="2"/>
</svg>
