<svg width="80" height="50" viewBox="0 0 80 50" fill="none" xmlns="http://www.w3.org/2000/svg">
<path d="M70.497 0.277563C71.1183 0.173292 71.7357 0.0700046 71.8712 0.0463962C72.0057 0.0237714 72.8675 0.00311393 73.7852 0.000162866C75.0927 -0.00278819 75.5923 0.0336082 76.0919 0.171324C76.4433 0.267726 76.993 0.475284 77.3159 0.63169C77.6379 0.788096 78.1826 1.18157 78.5272 1.50619C78.9699 1.92229 79.2526 2.29904 79.4881 2.78498C79.6727 3.1637 79.8719 3.73916 79.9318 4.06377C79.9936 4.39724 80.0172 5.08189 79.9868 5.63767C79.9573 6.1787 79.8395 6.95286 79.7247 7.35912C79.6108 7.7644 79.3605 8.40675 79.1701 8.78547C78.9787 9.16419 78.6342 9.73965 78.4045 10.0643C78.1738 10.3889 77.5888 11.0529 77.1039 11.5398C76.62 12.0267 75.9172 12.674 75.5442 12.9779C75.1702 13.2829 74.5342 13.7521 74.1288 14.0216C73.7244 14.2902 73.0059 14.7387 72.5337 15.0171C72.0616 15.2955 71.7014 15.5572 71.7338 15.5975C71.7652 15.6378 72.2187 15.7028 72.7399 15.7401C73.2611 15.7785 73.9521 15.8788 74.276 15.9644C74.5999 16.05 75.1742 16.2654 75.5521 16.4435C75.9673 16.6392 76.4924 17.0022 76.8772 17.3603C77.3025 17.7557 77.6205 18.1633 77.8312 18.583C78.006 18.9293 78.2199 19.5441 78.3073 19.9503C78.4212 20.4776 78.4516 20.9547 78.4143 21.6226C78.3848 22.1361 78.2916 22.8227 78.2052 23.1473C78.1188 23.4719 77.8911 24.069 77.6987 24.4753C77.5064 24.8806 77.1589 25.456 76.9272 25.7541C76.6956 26.0511 76.1361 26.6532 75.6855 27.0909C75.234 27.5286 74.5342 28.1277 74.1288 28.4238C73.7244 28.7189 73.0834 29.1537 72.7055 29.3898C72.3276 29.6249 71.5541 30.0498 70.9878 30.3321C70.4214 30.6155 69.538 31.0227 69.0247 31.2371C68.5113 31.4506 67.8271 31.7231 66.9143 32.0546L66.8358 34.0938C66.7935 35.2142 66.7386 36.4418 66.714 36.8205C66.6905 37.1993 66.6198 38.1289 66.558 38.8863C66.4942 39.6644 66.3214 40.7986 66.1595 41.4931C66.0014 42.1689 65.7403 43.0542 65.5784 43.4604C65.4164 43.8657 65.1141 44.4854 64.907 44.8376C64.6989 45.1898 64.2484 45.781 63.9058 46.1528C63.5406 46.5492 63.0391 46.9643 62.6936 47.1561C62.3696 47.3362 61.8396 47.5526 61.5157 47.6362C61.1918 47.7208 60.54 47.7896 60.0679 47.7896C59.5221 47.7887 59.0029 47.7247 58.6446 47.6136C58.3344 47.5172 57.8417 47.285 57.5492 47.0971C57.2577 46.9092 56.7718 46.4902 56.4695 46.1646C56.1681 45.84 55.7137 45.2203 55.4594 44.7874C55.2062 44.3556 54.8911 43.7575 54.7596 43.4604C54.628 43.1624 54.3669 42.4541 54.1795 41.8865C53.993 41.318 53.7613 40.5212 53.6651 40.1159C53.5689 39.7096 53.4629 39.3457 53.4296 39.3063C53.3962 39.267 52.9928 39.7972 52.5344 40.4838C51.9876 41.3032 51.3781 42.0577 50.7676 42.6725C50.2542 43.1889 49.4817 43.8726 49.0498 44.1923C48.6179 44.513 47.9112 44.9832 47.4793 45.238C47.0474 45.4937 46.3849 45.8449 46.007 46.019C45.6291 46.1931 44.9891 46.4695 44.5837 46.6328C44.1793 46.7951 43.4284 47.0538 42.915 47.2073C42.4017 47.3598 41.4309 47.5949 40.7556 47.7296C40.0813 47.8644 39.0977 48.0218 38.5716 48.0788C38.0455 48.1359 36.9187 48.1821 36.0686 48.1831C35.2186 48.1831 34.0584 48.1369 33.492 48.0798C32.9256 48.0228 32.0638 47.8939 31.578 47.7936C31.0921 47.6932 30.2538 47.4631 29.7159 47.2821C29.178 47.1011 28.5528 46.8197 28.326 46.6574C28.1003 46.4951 27.7724 46.1852 27.5987 45.9688C27.424 45.7524 27.159 45.3098 27.0098 44.9851C26.8606 44.6605 26.6692 44.1293 26.5847 43.8047C26.5003 43.4801 26.3629 42.8604 26.2785 42.4276C26.1951 41.9947 26.0635 41.0209 25.986 40.2635C25.9084 39.506 25.8014 38.2439 25.7465 37.4599C25.6925 36.675 25.5963 35.1257 25.5335 34.017C25.455 32.634 25.4383 30.0065 25.4805 25.6557C25.5139 22.1656 25.5629 18.459 25.5904 17.4173C25.6287 15.9418 25.612 15.5237 25.5168 15.5227C25.4491 15.5227 25.1291 15.6093 24.8052 15.7155C24.4812 15.8218 24.1603 15.9664 24.0916 16.0362C24.0209 16.108 23.9247 16.6314 23.8687 17.2452C23.8138 17.8403 23.7284 18.9027 23.6773 19.606C23.6263 20.3094 23.5164 22.1685 23.4339 23.7375C23.3515 25.3065 23.2808 28.3382 23.2759 30.4758C23.271 32.6123 23.3201 35.2467 23.3839 36.3287C23.4477 37.4108 23.4751 38.9601 23.4437 39.7716C23.4133 40.5832 23.2994 41.7341 23.1925 42.3292C23.0845 42.9243 22.9117 43.6768 22.8087 44.0015C22.7056 44.3261 22.4916 44.8789 22.3336 45.2311C22.1756 45.5832 21.9115 46.0692 21.7466 46.3131C21.5827 46.5561 21.2048 47.0214 20.9083 47.346C20.6119 47.6706 20.0858 48.1211 19.7403 48.3474C19.3948 48.5727 18.8245 48.856 18.4741 48.975C18.0746 49.1107 17.4876 49.2101 16.9036 49.2416C16.24 49.277 15.7581 49.2445 15.2349 49.1294C14.8295 49.0409 14.2337 48.8412 13.9098 48.6877C13.5859 48.5333 13.0892 48.2244 12.8055 48.0002C12.5219 47.7759 12.089 47.3371 11.8436 47.0263C11.5982 46.7155 11.2468 46.1951 11.0623 45.8705C10.8777 45.5459 10.6147 44.993 10.4763 44.6409C10.3389 44.2887 10.119 43.5588 9.98844 43.0178C9.85888 42.4767 9.70673 41.6357 9.65275 41.1488C9.59778 40.6618 9.52318 38.9355 9.48686 37.3124C9.45153 35.6893 9.40932 34.0957 9.39362 33.7711C9.37791 33.4465 9.36122 29.6839 9.34748 17.6387L8.29132 17.558C7.71023 17.5127 6.77186 17.3947 6.20451 17.2953C5.63717 17.196 4.79891 16.9875 4.33954 16.831C3.88017 16.6746 3.19602 16.3667 2.81811 16.1464C2.44021 15.9251 1.88857 15.5257 1.59116 15.2571C1.29374 14.9886 0.898173 14.5292 0.710694 14.2361C0.523216 13.9439 0.28764 13.4383 0.186539 13.1137C0.0658064 12.7261 0.00200474 12.2195 4.16072e-05 11.6382C-0.00192152 11.1385 0.0658064 10.4745 0.15611 10.1134C0.244451 9.76129 0.470211 9.16419 0.659653 8.78547C0.848113 8.40675 1.2535 7.80867 1.55877 7.45749C1.86501 7.10533 2.40586 6.57414 2.76118 6.27707C3.11651 5.97901 3.73882 5.52848 4.14323 5.27568C4.54861 5.02188 5.3211 4.60677 5.86096 4.35298C6.40082 4.10017 7.19589 3.7608 7.62778 3.59947C8.05967 3.43913 8.74382 3.19715 9.14921 3.06336C9.55361 2.9286 10.5695 2.64333 11.4068 2.42889C12.2441 2.21346 13.7449 1.88983 14.7441 1.70883C15.7434 1.52685 17.3109 1.28879 18.2287 1.17862C19.1464 1.06845 20.4716 0.924829 21.1734 0.859905C21.9684 0.787112 23.3367 0.761537 24.8052 0.792031C27.0196 0.839248 27.2286 0.859905 28.2897 1.13731C28.9101 1.29961 29.7061 1.56914 30.0565 1.73539C30.407 1.90261 30.9704 2.26166 31.308 2.53512C31.6457 2.80761 32.0098 3.0309 32.1178 3.0309C32.2258 3.0309 32.4358 2.96795 32.5841 2.8922C32.7323 2.81547 33.1632 2.63546 33.5411 2.49283C33.919 2.34921 34.7798 2.06099 35.4551 1.85245C36.1295 1.64292 36.9913 1.39995 37.3692 1.3124C37.7471 1.22387 38.5206 1.05959 39.0869 0.94647C39.9075 0.782194 40.4876 0.740879 41.9335 0.739895C43.1938 0.739895 44.0497 0.791047 44.7309 0.907122C45.2708 0.998605 46.1316 1.20911 46.645 1.37339C47.1583 1.53865 47.9308 1.82785 48.3627 2.01672C48.7946 2.20559 49.5239 2.60595 49.9823 2.90597C50.4407 3.206 51.1651 3.78834 51.5911 4.20051C52.0161 4.61169 52.5933 5.25895 52.872 5.63767C53.1508 6.01639 53.5051 6.54758 53.6583 6.8181C53.8114 7.08861 53.9527 7.33158 53.9704 7.35912C53.989 7.38568 54.3689 7.02861 54.8155 6.56529C55.2612 6.10099 55.9571 5.50586 56.3625 5.24125C56.7669 4.97762 57.6287 4.49266 58.2765 4.16411C58.9244 3.83556 60.0286 3.34175 60.7304 3.06533C61.4323 2.78892 62.3373 2.44954 62.7426 2.31183C63.147 2.17313 63.9205 1.92327 64.4604 1.75506C65.0002 1.58783 66.3253 1.22879 67.4051 0.958274C68.4848 0.68776 69.8757 0.38085 70.497 0.277563Z" fill="#010102"/>
<path d="M51.1607 22.9014C51.407 22.6043 51.781 22.1282 51.9911 21.8439C52.2011 21.5596 52.3778 21.3275 52.3847 21.3275C52.3906 21.3275 52.3778 22.2236 52.3572 23.3194C52.3356 24.4153 52.2895 25.3419 52.2541 25.3793C52.2188 25.4167 51.8036 25.0733 51.3314 24.6169C50.5815 23.8919 50.4883 23.765 50.5933 23.6145C50.6591 23.5201 50.9143 23.1984 51.1607 22.9014Z" fill="#01E6FE"/>
<path d="M71.1841 2.844C71.9124 2.73186 72.6643 2.62463 72.8528 2.60496C73.0412 2.58627 73.3288 2.56365 73.4908 2.55578C73.6528 2.54692 74.172 2.5843 74.6441 2.63841C75.1555 2.69644 75.6885 2.82531 75.9614 2.95712C76.2137 3.0791 76.567 3.33289 76.7467 3.52274C76.9263 3.71161 77.1216 3.99983 77.1795 4.16214C77.2384 4.32445 77.3268 4.53495 77.3758 4.62939C77.4259 4.72382 77.4661 4.9786 77.4661 5.19501C77.4661 5.41142 77.422 5.58848 77.368 5.58848C77.314 5.58848 77.2688 5.7321 77.2669 5.90818C77.2659 6.08426 77.1668 6.51708 77.046 6.87023C76.9263 7.22435 76.673 7.77522 76.4846 8.09492C76.2961 8.4156 75.6767 9.14746 75.1104 9.72292C74.544 10.2974 73.7843 10.986 73.4221 11.2526C73.0609 11.5191 72.3316 12.007 71.8025 12.3385C71.2734 12.67 70.2222 13.2504 69.4664 13.6282C68.7106 14.0059 67.2225 14.6866 64.2268 15.9664L64.1728 16.3107C64.1434 16.5005 64.1149 17.1862 64.11 17.8354C64.1051 18.4846 64.0717 19.3847 64.0354 19.8352C63.9991 20.2857 63.9922 20.6714 64.0187 20.692C64.0452 20.7127 64.3112 20.6045 64.6076 20.45C64.9041 20.2966 65.7659 19.9238 66.5217 19.6237C67.2775 19.3227 68.4259 18.9342 69.0738 18.7591C70.1682 18.464 70.3665 18.4404 71.8712 18.4345C73.3161 18.4276 73.5487 18.4502 74.0307 18.642C74.3271 18.76 74.7492 19.0247 74.9671 19.2312C75.2144 19.4644 75.4284 19.7919 75.5334 20.0979C75.6326 20.3881 75.7013 20.8819 75.7003 21.3029C75.7003 21.6954 75.6257 22.2708 75.5364 22.5817C75.4471 22.8925 75.2311 23.3912 75.0574 23.6883C74.8827 23.9854 74.437 24.5402 74.067 24.9189C73.6959 25.2986 73.1276 25.8111 72.8037 26.058C72.4798 26.3049 71.9497 26.6866 71.6258 26.906C71.3019 27.1253 70.5294 27.567 69.9081 27.8887C69.2868 28.2103 68.0942 28.7405 67.2579 29.0681C66.4216 29.3957 65.4272 29.7636 65.0493 29.8855C64.6714 30.0065 64.3289 30.1344 64.2877 30.1679C64.2464 30.2023 64.1689 31.6463 64.1159 33.3776C64.0619 35.1089 63.9745 37.1009 63.9196 37.8042C63.8656 38.5076 63.7743 39.4145 63.7174 39.8208C63.6604 40.2261 63.5063 40.9678 63.3748 41.4685C63.2433 41.9692 62.9733 42.6991 62.776 43.0915C62.5787 43.484 62.2136 44.0211 61.9662 44.2848C61.7189 44.5494 61.3174 44.8514 61.074 44.9556C60.8286 45.0609 60.3928 45.1475 60.0924 45.1514C59.6763 45.1573 59.4319 45.0933 59.0255 44.875C58.6643 44.6812 58.36 44.4058 58.0577 44.0015C57.8152 43.6768 57.4942 43.1673 57.3441 42.8702C57.1949 42.5731 56.9318 41.9308 56.761 41.4439C56.5902 40.9569 56.3674 40.2261 56.2663 39.8208C56.1642 39.4145 56.014 38.7505 55.9316 38.3453C55.8501 37.939 55.694 37.0094 55.5851 36.2795C55.4761 35.5496 55.3191 34.3318 55.2357 33.5744C55.1522 32.8169 55.0374 31.0906 54.9795 29.738C54.9049 27.9851 54.9049 25.8947 54.9805 22.4587C55.0393 19.8077 55.1532 16.5546 55.2347 15.2286C55.3162 13.9026 55.4496 12.2874 55.5331 11.6382C55.6155 10.9889 55.752 10.1921 55.8364 9.86752C55.9198 9.5429 56.0592 9.14451 56.1446 8.9822C56.23 8.81989 56.5019 8.49233 56.7483 8.25526C56.9946 8.01721 57.4403 7.65816 57.7367 7.4565C58.0331 7.25485 58.7624 6.84662 59.3563 6.54758C59.9501 6.24952 61.0544 5.76063 61.8102 5.46257C62.566 5.16353 63.8028 4.71989 64.5586 4.47692C65.3144 4.23395 66.8162 3.81293 67.8959 3.54143C68.9756 3.27092 70.4558 2.95712 71.1841 2.844Z" fill="white"/>
<path d="M38.0072 3.87884C38.5736 3.74014 39.5022 3.5611 40.0685 3.47946C40.7458 3.38306 41.5693 3.34666 42.4734 3.37322C43.2292 3.39486 44.2009 3.48339 44.6328 3.56996C45.0647 3.65652 45.8156 3.86113 46.3015 4.0254C46.7873 4.18968 47.4715 4.47495 47.8229 4.66087C48.1743 4.8458 48.7691 5.23042 49.1451 5.51471C49.521 5.79899 50.1089 6.36264 50.4505 6.76891C50.8157 7.20271 51.2731 7.91195 51.5617 8.49036C51.9062 9.18189 52.1084 9.75145 52.2429 10.4085C52.3557 10.9624 52.4343 11.7434 52.4353 12.3267C52.4362 12.8678 52.3911 13.6862 52.3342 14.1466C52.2782 14.6059 52.1261 15.3811 51.9965 15.868C51.8659 16.3549 51.6117 17.1075 51.4311 17.5403C51.2505 17.9731 50.8932 18.6814 50.637 19.1142C50.3818 19.547 49.944 20.211 49.6653 20.5897C49.3875 20.9684 48.7151 21.7249 48.1723 22.2698C47.6295 22.8158 46.8757 23.4936 46.4978 23.7778C46.1199 24.0611 45.8107 24.3376 45.8107 24.3926C45.8107 24.4467 46.1866 24.611 46.645 24.7576C47.1034 24.9042 47.7002 25.1511 47.9701 25.3055C48.24 25.4609 48.7446 25.8131 49.0901 26.0885C49.4366 26.3649 49.9048 26.8342 50.1315 27.1312C50.3583 27.4283 50.6802 27.9162 50.8471 28.2133C51.014 28.5104 51.2633 29.0534 51.4007 29.4183C51.5381 29.7832 51.7285 30.403 51.8228 30.7955C51.9533 31.3385 51.9936 31.9316 51.9936 33.2793C51.9926 34.8158 51.9631 35.167 51.7639 35.9352C51.6372 36.4221 51.3467 37.2189 51.118 37.7059C50.8893 38.1928 50.4878 38.901 50.2267 39.2798C49.9656 39.6585 49.306 40.411 48.7622 40.952C48.2185 41.494 47.442 42.157 47.0376 42.4256C46.6332 42.6951 45.8156 43.1673 45.2217 43.4752C44.6279 43.7841 43.5894 44.2198 42.9151 44.4441C42.2407 44.6694 41.2022 44.9586 40.6084 45.0865C40.0145 45.2153 38.9986 45.3727 38.3508 45.4367C37.6117 45.5094 36.4416 45.5301 35.2098 45.4937C34.1301 45.4613 32.9149 45.3727 32.5105 45.297C32.1061 45.2202 31.3768 45.0363 30.8909 44.8878C30.2264 44.6832 29.9388 44.5395 29.7307 44.3084C29.5776 44.1402 29.3655 43.7142 29.2586 43.3621C29.1525 43.0099 28.9818 42.2357 28.8806 41.6406C28.7795 41.0455 28.6284 39.7618 28.5459 38.7879C28.4625 37.8141 28.3428 35.8447 28.2799 34.4105C28.2024 32.6546 28.1837 29.4763 28.223 24.672C28.2554 20.7491 28.328 16.4563 28.384 15.1302C28.4409 13.8042 28.5253 12.3435 28.5705 11.8841C28.6166 11.4237 28.6392 11.0145 28.6196 10.9742C28.5999 10.9338 28.3526 11.0617 28.0689 11.2585C27.7852 11.4552 26.9794 11.8959 26.2775 12.2372C25.5757 12.5786 24.4931 13.0311 23.8727 13.2435C23.2524 13.456 22.4838 13.6911 22.1658 13.7649C21.8477 13.8396 21.5739 13.9449 21.5582 13.999C21.5415 14.0531 21.4374 15.1155 21.3255 16.3599C21.2146 17.6042 21.0586 19.5736 20.98 20.7373C20.9015 21.9 20.7847 24.069 20.7209 25.5573C20.6492 27.2512 20.6296 29.6416 20.6689 31.9513C20.7032 33.9797 20.7582 36.7241 20.7906 38.0502C20.8367 39.9516 20.8171 40.6677 20.6993 41.4439C20.6169 41.9849 20.4156 42.8476 20.2517 43.3621C20.0593 43.967 19.8061 44.5081 19.5332 44.8966C19.3016 45.2271 18.958 45.6334 18.7686 45.7996C18.5791 45.9649 18.2042 46.199 17.9342 46.319C17.6643 46.438 17.2 46.559 16.9036 46.5856C16.6072 46.6131 16.1203 46.5797 15.8239 46.5128C15.5274 46.4449 15.1073 46.2895 14.8914 46.1675C14.6754 46.0456 14.2848 45.7072 14.0227 45.416C13.7606 45.1248 13.3994 44.5769 13.2188 44.1982C13.0382 43.8195 12.8016 43.1771 12.6917 42.7718C12.5827 42.3656 12.4483 41.6573 12.3933 41.1979C12.3383 40.7386 12.2412 38.9453 12.1764 37.214C12.1096 35.4119 12.0556 29.9328 12.0449 14.7338L11.1614 14.8086C10.6756 14.8499 9.70382 14.8794 9.002 14.8725C8.30018 14.8666 7.39518 14.8096 6.98979 14.7456C6.58539 14.6817 5.94443 14.5361 5.56652 14.423C5.18862 14.3099 4.70275 14.1298 4.4868 14.0226C4.27086 13.9154 3.88216 13.6675 3.62401 13.4708C3.32856 13.2475 3.06255 12.9297 2.91139 12.6218C2.75042 12.2972 2.66895 11.9628 2.66895 11.6382C2.66895 11.3676 2.74158 10.9024 2.82992 10.6053C2.91826 10.3082 3.09494 9.89802 3.22353 9.69538C3.35113 9.49274 3.62204 9.14353 3.82425 8.91925C4.02645 8.69497 4.43478 8.3251 4.73219 8.09787C5.02961 7.86965 5.62542 7.47815 6.05731 7.22829C6.4892 6.97843 7.28426 6.59381 7.82412 6.37347C8.36398 6.1541 9.35733 5.79702 10.0326 5.5816C10.707 5.36519 11.9222 5.03172 12.7319 4.8399C13.5417 4.64808 14.8227 4.38347 15.5785 4.25264C16.3343 4.12181 17.6594 3.92802 18.5232 3.82277C19.387 3.71751 20.7337 3.57881 21.517 3.51389C22.3788 3.44208 23.7343 3.41749 24.9524 3.45093C26.4984 3.49323 27.1354 3.55028 27.7008 3.69882C28.1052 3.80506 28.702 4.01753 29.0259 4.17197C29.3498 4.32543 29.8367 4.67464 30.1066 4.94614C30.4777 5.31797 30.6416 5.5816 30.7692 6.00655C30.8634 6.31739 30.9508 6.57315 30.9645 6.57414C30.9783 6.57512 31.6742 6.24657 32.5105 5.84424C33.3468 5.44093 34.6945 4.89105 35.5042 4.62054C36.314 4.351 37.4409 4.01753 38.0072 3.87884Z" fill="white"/>
<path d="M38.6203 14.2931C38.904 14.1033 39.4222 13.8396 39.7736 13.7078C40.2516 13.5288 40.6089 13.4678 41.1969 13.4658C41.8202 13.4639 42.0734 13.5091 42.4238 13.6862C42.7468 13.8495 42.9254 14.0265 43.0874 14.3472C43.215 14.6 43.3082 14.964 43.3082 15.204C43.3073 15.4342 43.2572 15.8326 43.1963 16.0893C43.1355 16.3461 42.9235 16.9107 42.7242 17.3435C42.5259 17.7764 42.1333 18.4738 41.8536 18.8928C41.5738 19.3119 41.0683 19.9287 40.7306 20.2621C40.393 20.5966 39.8521 21.0412 39.5282 21.2498C39.2043 21.4593 38.7842 21.6727 38.5957 21.7239C38.4073 21.776 38.1089 21.8183 37.9332 21.8183C37.6417 21.8193 37.6083 21.7878 37.5504 21.4504C37.515 21.2478 37.5131 20.1736 37.5455 19.065C37.5779 17.9564 37.6691 16.6284 37.7496 16.1139C37.8301 15.5995 37.943 15.0574 37.9999 14.9089C38.0578 14.7604 38.3366 14.483 38.6203 14.2931Z" fill="#010102"/>
<path d="M38.5957 30.2033C38.8392 30.0557 39.3241 29.8364 39.6755 29.7163C40.0269 29.5954 40.5569 29.496 40.8533 29.494C41.1498 29.4921 41.6141 29.5531 41.884 29.6308C42.2112 29.7252 42.4811 29.8895 42.6938 30.1236C42.9064 30.3584 43.0321 30.6151 43.0707 30.8938C43.1031 31.124 43.0756 31.5106 43.0108 31.7545C42.947 31.9975 42.8047 32.3743 42.6967 32.5907C42.5887 32.8071 42.3169 33.2222 42.094 33.5134C41.8702 33.8045 41.3569 34.2866 40.9515 34.5846C40.5471 34.8817 39.8845 35.283 39.4792 35.4748C38.9295 35.7355 38.6075 35.826 38.211 35.8309C37.6849 35.8368 37.678 35.8339 37.5867 35.4926C37.5357 35.3017 37.517 34.3171 37.5445 33.2793C37.572 32.2513 37.6456 31.2548 37.7064 31.066C37.7683 30.8771 37.8939 30.6656 37.9862 30.5967C38.0785 30.5279 38.3523 30.3508 38.5957 30.2033Z" fill="#010102"/>
</svg>
