<svg width="24" height="24" viewBox="0 0 24 24" fill="none" xmlns="http://www.w3.org/2000/svg">
<path d="M20 12V6C20 3.79 18.21 2 16 2H8C5.79 2 4 3.79 4 6V12C1.79 12 0 13.79 0 16V18C0 20.21 1.79 22 4 22H20C22.21 22 24 20.21 24 18V16C24 13.79 22.21 12 20 12ZM6 6C6 4.9 6.9 4 8 4H16C17.1 4 18 4.9 18 6V16H6V6ZM22 18C22 19.1 21.1 20 20 20H4C2.9 20 2 19.1 2 18V16C2 14.9 2.9 14 4 14V17C4 17.55 4.45 18 5 18H19C19.55 18 20 17.55 20 17V14C21.1 14 22 14.9 22 16V18ZM8.29 11.1C7.9 10.71 7.9 10.08 8.29 9.69C8.68 9.3 9.31 9.3 9.7 9.69L10.87 10.86C11.07 11.06 11.38 11.05 11.58 10.86L14.29 8.15C14.68 7.76 15.31 7.76 15.7 8.15C16.09 8.54 16.09 9.17 15.7 9.56L12.99 12.27C12.5 12.76 11.86 13 11.22 13C10.58 13 9.94 12.76 9.45 12.27L8.28 11.1H8.29Z" fill="#1E1E1E"/>
</svg>
